<?xml version="1.0" encoding="iso-8859-1"?>
<!-- Generator: Adobe Illustrator 16.0.0, SVG Export Plug-In . SVG Version: 6.00 Build 0)  -->
<!DOCTYPE svg PUBLIC "-//W3C//DTD SVG 1.1//EN" "http://www.w3.org/Graphics/SVG/1.1/DTD/svg11.dtd">
<svg version="1.1" id="Layer_1" xmlns="http://www.w3.org/2000/svg" xmlns:xlink="http://www.w3.org/1999/xlink" x="0px" y="0px"
	 width="450px" height="300px" viewBox="0 0 450 300" style="enable-background:new 0 0 450 300;" xml:space="preserve">
<rect width="450" height="300"/>
<g>
	<polygon style="fill:none;stroke:#FFFFFF;stroke-width:2.1689;stroke-linejoin:round;stroke-miterlimit:10;" points="
		182.3,163.634 227.427,146.805 211.666,275.567 188.724,242.801 160.424,260.907 	"/>
	<polygon style="fill:none;stroke:#FFFFFF;stroke-width:2.1689;stroke-linejoin:round;stroke-miterlimit:10;" points="
		260.496,163.634 215.369,146.805 231.13,275.567 254.072,242.801 282.373,260.907 	"/>
	<polygon style="stroke:#FFFFFF;stroke-width:2.246;stroke-linejoin:round;stroke-miterlimit:10;" points="221.2,41.094 
		238.425,26.336 248.158,46.824 269.896,40.348 270.454,63.023 292.947,65.948 284.233,86.89 303.593,98.711 287.113,114.3 
		299.993,132.972 278.599,140.509 282.768,162.806 260.157,160.991 254.897,183.055 234.98,172.2 221.2,190.218 207.42,172.2 
		187.504,183.055 182.245,160.991 159.633,162.806 163.802,140.509 142.409,132.972 155.288,114.3 138.808,98.711 158.167,86.89 
		149.455,65.948 171.948,63.023 172.505,40.348 194.243,46.824 203.976,26.336 	"/>
	<circle style="fill:none;stroke:#FFFFFF;stroke-width:0.9424;stroke-miterlimit:10;" cx="158.482" cy="50.622" r="3.21"/>
	<circle style="fill:none;stroke:#FFFFFF;stroke-width:0.9424;stroke-miterlimit:10;" cx="148.115" cy="149.574" r="3.21"/>
	<circle style="fill:none;stroke:#FFFFFF;stroke-width:0.9424;stroke-miterlimit:10;" cx="254.607" cy="30.832" r="3.21"/>
	<circle style="fill:none;stroke:#FFFFFF;stroke-width:0.9424;stroke-miterlimit:10;" cx="221.623" cy="24.235" r="3.21"/>
	<circle style="fill:none;stroke:#FFFFFF;stroke-width:0.9424;stroke-miterlimit:10;" cx="187.696" cy="30.832" r="3.21"/>
	<circle style="fill:none;stroke:#FFFFFF;stroke-width:0.9424;stroke-miterlimit:10;" cx="281.937" cy="49.68" r="3.21"/>
	<circle style="fill:none;stroke:#FFFFFF;stroke-width:0.9424;stroke-miterlimit:10;" cx="297.015" cy="81.722" r="3.21"/>
	<circle style="fill:none;stroke:#FFFFFF;stroke-width:0.9424;stroke-miterlimit:10;" cx="303.612" cy="113.763" r="3.21"/>
	<circle style="fill:none;stroke:#FFFFFF;stroke-width:0.9424;stroke-miterlimit:10;" cx="140.576" cy="116.59" r="3.21"/>
	<circle style="fill:none;stroke:#FFFFFF;stroke-width:0.9424;stroke-miterlimit:10;" cx="145.288" cy="81.722" r="3.21"/>
	<circle style="fill:none;stroke:#FFFFFF;stroke-width:0.9424;stroke-miterlimit:10;" cx="290.418" cy="149.574" r="3.21"/>
</g>
</svg>
