<?xml version="1.0" encoding="iso-8859-1"?>
<!-- Generator: Adobe Illustrator 16.0.0, SVG Export Plug-In . SVG Version: 6.00 Build 0)  -->
<!DOCTYPE svg PUBLIC "-//W3C//DTD SVG 1.1//EN" "http://www.w3.org/Graphics/SVG/1.1/DTD/svg11.dtd">
<svg version="1.1" id="Layer_1" xmlns="http://www.w3.org/2000/svg" xmlns:xlink="http://www.w3.org/1999/xlink" x="0px" y="0px"
	 width="499px" height="341px" viewBox="0 0 499 341" style="enable-background:new 0 0 499 341;" xml:space="preserve">
<circle style="fill:none;stroke:#FFFFFF;stroke-width:0.3973;stroke-miterlimit:10;" cx="118.308" cy="266.563" r="5.039"/>
<circle style="fill:none;stroke:#FFFFFF;stroke-width:0.1987;stroke-miterlimit:10;" cx="118.308" cy="266.563" r="4.165"/>
<circle style="fill:none;stroke:#FFFFFF;stroke-width:0.427;stroke-miterlimit:10;" cx="394.758" cy="277.583" r="4.262"/>
<rect y="0.002" style="fill:#FBB982;" width="499" height="340.999"/>
<g>
	<rect x="8" y="9.079" style="fill:#010101;" width="482" height="322"/>
	<polygon style="fill:none;stroke:#FFFFFF;stroke-width:2.1444;stroke-linejoin:round;stroke-miterlimit:10;" points="
		203.263,184.713 251.601,166.649 234.718,304.854 210.144,269.685 179.832,289.12 	"/>
	<polygon style="fill:none;stroke:#FFFFFF;stroke-width:2.1444;stroke-linejoin:round;stroke-miterlimit:10;" points="
		287.021,184.713 238.684,166.649 255.566,304.854 280.14,269.685 310.453,289.12 	"/>
	<polygon style="fill:#010101;stroke:#FFFFFF;stroke-width:2.1444;stroke-linejoin:round;stroke-miterlimit:10;" points="
		244.93,53.187 263.38,37.346 273.805,59.337 297.089,52.386 297.687,76.724 321.779,79.864 312.445,102.341 333.182,115.029 
		315.53,131.761 329.325,151.802 306.411,159.892 310.875,183.824 286.657,181.876 281.022,205.558 259.69,193.907 244.93,213.246 
		230.17,193.907 208.837,205.558 203.204,181.876 178.984,183.824 183.451,159.892 160.536,151.802 174.33,131.761 156.68,115.029 
		177.415,102.341 168.083,79.864 192.175,76.724 192.772,52.386 216.055,59.337 226.481,37.346 	"/>
	
		<ellipse style="fill:none;stroke:#FFFFFF;stroke-width:1.0105;stroke-miterlimit:10;" cx="177.751" cy="63.414" rx="3.438" ry="3.445"/>
	
		<ellipse style="fill:none;stroke:#FFFFFF;stroke-width:1.0105;stroke-miterlimit:10;" cx="166.648" cy="169.622" rx="3.439" ry="3.445"/>
	
		<ellipse style="fill:none;stroke:#FFFFFF;stroke-width:1.0105;stroke-miterlimit:10;" cx="280.712" cy="42.172" rx="3.438" ry="3.445"/>
	
		<ellipse style="fill:none;stroke:#FFFFFF;stroke-width:1.0105;stroke-miterlimit:10;" cx="245.383" cy="35.092" rx="3.439" ry="3.445"/>
	
		<ellipse style="fill:none;stroke:#FFFFFF;stroke-width:1.0105;stroke-miterlimit:10;" cx="209.044" cy="42.172" rx="3.438" ry="3.445"/>
	
		<ellipse style="fill:none;stroke:#FFFFFF;stroke-width:1.0105;stroke-miterlimit:10;" cx="309.985" cy="62.402" rx="3.438" ry="3.445"/>
	
		<ellipse style="fill:none;stroke:#FFFFFF;stroke-width:1.0105;stroke-miterlimit:10;" cx="326.136" cy="96.793" rx="3.439" ry="3.446"/>
	
		<ellipse style="fill:none;stroke:#FFFFFF;stroke-width:1.0105;stroke-miterlimit:10;" cx="333.202" cy="131.185" rx="3.439" ry="3.445"/>
	
		<ellipse style="fill:none;stroke:#FFFFFF;stroke-width:1.0105;stroke-miterlimit:10;" cx="158.573" cy="134.219" rx="3.439" ry="3.446"/>
	
		<ellipse style="fill:none;stroke:#FFFFFF;stroke-width:1.0105;stroke-miterlimit:10;" cx="163.62" cy="96.793" rx="3.438" ry="3.446"/>
	
		<ellipse style="fill:none;stroke:#FFFFFF;stroke-width:1.0105;stroke-miterlimit:10;" cx="319.071" cy="169.622" rx="3.439" ry="3.445"/>
</g>
</svg>
