<?xml version="1.0" encoding="iso-8859-1"?>
<!-- Generator: Adobe Illustrator 16.0.0, SVG Export Plug-In . SVG Version: 6.00 Build 0)  -->
<!DOCTYPE svg PUBLIC "-//W3C//DTD SVG 1.1//EN" "http://www.w3.org/Graphics/SVG/1.1/DTD/svg11.dtd">
<svg version="1.1" id="Layer_1" xmlns="http://www.w3.org/2000/svg" xmlns:xlink="http://www.w3.org/1999/xlink" x="0px" y="0px"
	 width="499px" height="341px" viewBox="0 0 499 341" style="enable-background:new 0 0 499 341;" xml:space="preserve">
<circle style="fill:none;stroke:#FFFFFF;stroke-width:0.3973;stroke-miterlimit:10;" cx="118.308" cy="266.563" r="5.039"/>
<circle style="fill:none;stroke:#FFFFFF;stroke-width:0.1987;stroke-miterlimit:10;" cx="118.308" cy="266.563" r="4.165"/>
<circle style="fill:none;stroke:#FFFFFF;stroke-width:0.427;stroke-miterlimit:10;" cx="394.758" cy="277.583" r="4.262"/>
<g>
	<rect x="0.008" y="0" style="fill:#FBB982;" width="498.992" height="341"/>
	<g>
		<rect x="9.153" y="10" style="fill:#010101;" width="482" height="322"/>
		<path style="fill:none;stroke:#FFFFFF;stroke-width:2.1185;stroke-linejoin:round;stroke-miterlimit:10;" d="M54.183,116.339
			c0,0,4.887-0.098,7.73-0.69c11.368,1.205,147.601-35.008,149.742-30.542c1.648,5.351,90.614,151.991,90.614,151.991
			l-200.598,61.449L54.183,116.339z"/>
		<path style="fill:none;stroke:#FFFFFF;stroke-width:2.1185;stroke-linejoin:round;stroke-miterlimit:10;" d="M302.269,237.008
			c-10.656-9.887,24.139-33.867,87.537-34.03c36.171-0.094,52.593-10.017,56.849-9.326c4.312,0.701-119.589-136.108-116.025-132.28
			c-2.421,1.532-68.312-1.767-86.464-1.733c-17.527,0.036-41.565,14.402-32.51,25.292"/>
		<polygon style="fill:none;stroke:#FFFFFF;stroke-width:1.4123;stroke-linejoin:round;stroke-miterlimit:10;" points="
			205.446,94.477 72.529,123.997 83.414,155.397 220.466,123.525 		"/>
		
			<line style="fill:none;stroke:#FFFFFF;stroke-width:0.7062;stroke-linecap:round;stroke-linejoin:round;stroke-miterlimit:10;" x1="109.455" y1="224.116" x2="159.551" y2="210.289"/>
		
			<path style="fill:none;stroke:#FFFFFF;stroke-width:1.4123;stroke-linecap:round;stroke-linejoin:round;stroke-miterlimit:10;" d="
			M180.27,262.878"/>
		
			<line style="fill:none;stroke:#FFFFFF;stroke-width:0.7062;stroke-linecap:round;stroke-linejoin:round;stroke-miterlimit:10;" x1="124.047" y1="272.882" x2="178.328" y2="255.858"/>
		
			<line style="fill:none;stroke:#FFFFFF;stroke-width:0.7062;stroke-linecap:round;stroke-linejoin:round;stroke-miterlimit:10;" x1="120.584" y1="259.926" x2="173.172" y2="244.128"/>
		
			<line style="fill:none;stroke:#FFFFFF;stroke-width:0.7062;stroke-linecap:round;stroke-linejoin:round;stroke-miterlimit:10;" x1="116.862" y1="248.028" x2="167.938" y2="232.99"/>
		
			<line style="fill:none;stroke:#FFFFFF;stroke-width:0.7062;stroke-linecap:round;stroke-linejoin:round;stroke-miterlimit:10;" x1="113.1" y1="235.778" x2="163.784" y2="221.526"/>
		
			<polygon style="fill:none;stroke:#FFFFFF;stroke-width:1.4123;stroke-linecap:round;stroke-linejoin:round;stroke-miterlimit:10;" points="
			277.383,226.839 191.648,252.037 149.438,144.963 222.113,128 		"/>
		
			<line style="fill:none;stroke:#FFFFFF;stroke-width:0.7062;stroke-linecap:round;stroke-linejoin:round;stroke-miterlimit:10;" x1="155.576" y1="199.26" x2="106.042" y2="212.574"/>
		
			<line style="fill:none;stroke:#FFFFFF;stroke-width:2.1185;stroke-linecap:round;stroke-linejoin:round;stroke-miterlimit:10;" x1="139.608" y1="148.889" x2="86.169" y2="162.14"/>
		
			<line style="fill:none;stroke:#FFFFFF;stroke-width:0.7062;stroke-linecap:round;stroke-linejoin:round;stroke-miterlimit:10;" x1="141.574" y1="155.397" x2="92.386" y2="167.911"/>
		
			<line style="fill:none;stroke:#FFFFFF;stroke-width:0.7062;stroke-linecap:round;stroke-linejoin:round;stroke-miterlimit:10;" x1="145.139" y1="165.646" x2="95.756" y2="178.403"/>
		
			<line style="fill:none;stroke:#FFFFFF;stroke-width:0.7062;stroke-linecap:round;stroke-linejoin:round;stroke-miterlimit:10;" x1="148.688" y1="176.874" x2="98.973" y2="189.665"/>
		
			<line style="fill:none;stroke:#FFFFFF;stroke-width:0.7062;stroke-linecap:round;stroke-linejoin:round;stroke-miterlimit:10;" x1="152.175" y1="188.108" x2="102.75" y2="200.96"/>
	</g>
</g>
</svg>
