<?xml version="1.0" encoding="iso-8859-1"?>
<!-- Generator: Adobe Illustrator 16.0.0, SVG Export Plug-In . SVG Version: 6.00 Build 0)  -->
<!DOCTYPE svg PUBLIC "-//W3C//DTD SVG 1.1//EN" "http://www.w3.org/Graphics/SVG/1.1/DTD/svg11.dtd">
<svg version="1.1" id="Layer_1" xmlns="http://www.w3.org/2000/svg" xmlns:xlink="http://www.w3.org/1999/xlink" x="0px" y="0px"
	 width="450px" height="300px" viewBox="0 0 450 300" style="enable-background:new 0 0 450 300;" xml:space="preserve">
<rect width="450" height="300"/>
<g>
	<path style="fill:none;stroke:#FFFFFF;stroke-width:1.9754;stroke-linejoin:round;stroke-miterlimit:10;" d="M42.272,99.074
		c0,0,4.561-0.091,7.213-0.643c10.609,1.122,137.742-32.616,139.739-28.456c1.538,4.985,84.562,141.606,84.562,141.606
		L86.588,268.833L42.272,99.074z"/>
	<path style="fill:none;stroke:#FFFFFF;stroke-width:1.9754;stroke-linejoin:round;stroke-miterlimit:10;" d="M273.786,211.499
		c-9.944-9.211,22.526-31.553,81.689-31.706c33.755-0.087,49.08-9.333,53.051-8.688c4.024,0.653-111.6-126.809-108.274-123.242
		c-2.26,1.427-63.749-1.646-80.688-1.615c-16.356,0.033-38.789,13.418-30.339,23.563"/>
	<polygon style="fill:none;stroke:#FFFFFF;stroke-width:1.3169;stroke-linejoin:round;stroke-miterlimit:10;" points="
		183.431,78.706 59.393,106.208 69.55,135.464 197.448,105.769 	"/>
	
		<line style="fill:none;stroke:#FFFFFF;stroke-width:0.6585;stroke-linecap:round;stroke-linejoin:round;stroke-miterlimit:10;" x1="93.852" y1="199.488" x2="140.602" y2="186.604"/>
	<path style="fill:none;stroke:#FFFFFF;stroke-width:1.3169;stroke-linecap:round;stroke-linejoin:round;stroke-miterlimit:10;" d="
		M159.937,235.602"/>
	<path style="fill:none;stroke:#FFFFFF;stroke-width:1.3169;stroke-linecap:round;stroke-linejoin:round;stroke-miterlimit:10;" d="
		M110.773,250.628"/>
	
		<line style="fill:none;stroke:#FFFFFF;stroke-width:0.6585;stroke-linecap:round;stroke-linejoin:round;stroke-miterlimit:10;" x1="107.47" y1="244.922" x2="158.124" y2="229.061"/>
	
		<line style="fill:none;stroke:#FFFFFF;stroke-width:0.6585;stroke-linecap:round;stroke-linejoin:round;stroke-miterlimit:10;" x1="104.237" y1="232.851" x2="153.312" y2="218.132"/>
	
		<line style="fill:none;stroke:#FFFFFF;stroke-width:0.6585;stroke-linecap:round;stroke-linejoin:round;stroke-miterlimit:10;" x1="100.765" y1="221.766" x2="148.428" y2="207.755"/>
	
		<line style="fill:none;stroke:#FFFFFF;stroke-width:0.6585;stroke-linecap:round;stroke-linejoin:round;stroke-miterlimit:10;" x1="97.253" y1="210.353" x2="144.552" y2="197.074"/>
	
		<polygon style="fill:none;stroke:#FFFFFF;stroke-width:1.3169;stroke-linecap:round;stroke-linejoin:round;stroke-miterlimit:10;" points="
		250.562,202.025 170.555,225.5 131.164,125.742 198.984,109.939 	"/>
	
		<line style="fill:none;stroke:#FFFFFF;stroke-width:0.6585;stroke-linecap:round;stroke-linejoin:round;stroke-miterlimit:10;" x1="136.892" y1="176.33" x2="90.667" y2="188.734"/>
	
		<line style="fill:none;stroke:#FFFFFF;stroke-width:1.9754;stroke-linecap:round;stroke-linejoin:round;stroke-miterlimit:10;" x1="121.991" y1="129.4" x2="72.122" y2="141.746"/>
	
		<line style="fill:none;stroke:#FFFFFF;stroke-width:0.6585;stroke-linecap:round;stroke-linejoin:round;stroke-miterlimit:10;" x1="123.825" y1="135.464" x2="77.923" y2="147.122"/>
	
		<line style="fill:none;stroke:#FFFFFF;stroke-width:0.6585;stroke-linecap:round;stroke-linejoin:round;stroke-miterlimit:10;" x1="127.152" y1="145.012" x2="81.068" y2="156.898"/>
	
		<line style="fill:none;stroke:#FFFFFF;stroke-width:0.6585;stroke-linecap:round;stroke-linejoin:round;stroke-miterlimit:10;" x1="130.464" y1="155.473" x2="84.07" y2="167.39"/>
	
		<line style="fill:none;stroke:#FFFFFF;stroke-width:0.6585;stroke-linecap:round;stroke-linejoin:round;stroke-miterlimit:10;" x1="133.718" y1="165.94" x2="87.595" y2="177.914"/>
</g>
</svg>
