<?xml version="1.0" encoding="iso-8859-1"?>
<!-- Generator: Adobe Illustrator 16.0.0, SVG Export Plug-In . SVG Version: 6.00 Build 0)  -->
<!DOCTYPE svg PUBLIC "-//W3C//DTD SVG 1.1//EN" "http://www.w3.org/Graphics/SVG/1.1/DTD/svg11.dtd">
<svg version="1.1" id="Layer_1" xmlns="http://www.w3.org/2000/svg" xmlns:xlink="http://www.w3.org/1999/xlink" x="0px" y="0px"
	 width="450px" height="300px" viewBox="0 0 450 300" style="enable-background:new 0 0 450 300;" xml:space="preserve">
<rect width="450" height="300"/>
<path style="fill:none;stroke:#FFFFFF;stroke-width:1.3985;stroke-miterlimit:10;" d="M228.887,58.093
	c0,0-6.083-35.081,28.175-36.033c6.282-0.175,13.56,1.575,22.046,9.296c0.778,0.709,6.112-0.874,18.704-7.113
	c-3.225,10.534-13.138,16.175-12.858,16.135c13.766-1.97,17.386-5.401,16.78-4.558c-9.2,12.803-14.636,15.016-14.624,15.15
	c4.983,56.006-59.075,114.239-128.915,74.685c-1.154-0.653,22.998,3.938,43.484-12.387c0,0-20.276,0.257-27.418-20.524
	c0,0,7.123,1.427,13.163-0.506c0.727-0.232-22.299-2.405-23.466-29.335c0,0,6.145,3.615,13.22,3.751
	c0.898,0.018-21.861-13.073-8.97-39.339C168.208,27.314,193.233,58.316,228.887,58.093z"/>
<g>
	<g>
		<path style="fill:none;stroke:#FFFFFF;stroke-miterlimit:10;" d="M349.5,247.567c0,11.561-9.372,20.933-20.933,20.933h-77.135
			c-11.561,0-20.933-9.372-20.933-20.933v-77.135c0-11.561,9.372-20.933,20.933-20.933h77.135c11.561,0,20.933,9.372,20.933,20.933
			V247.567z"/>
	</g>
	<g>
		<path style="fill:none;stroke:#FFFFFF;stroke-miterlimit:10;" d="M340.5,175.241c0,2.904-2.354,5.259-5.259,5.259h-13.482
			c-2.904,0-5.259-2.354-5.259-5.259v-12.482c0-2.904,2.354-5.259,5.259-5.259h13.482c2.904,0,5.259,2.354,5.259,5.259V175.241z"/>
	</g>
	<path style="fill:none;stroke:#FFFFFF;stroke-miterlimit:10;" d="M239.146,153.031c-1.084,1.158-1.646,3.079-1.646,3.079
		s0,29.572,0,29.181c0-0.757,2.507-2.406,6.413-2.406c0.682,0,6.21-0.08,6.21-0.08s1.367-0.05,5.968,0
		c4.783,0.05,5.79,1.927,5.79,1.927c0.021,0.2,0.024-31.926,0.024-31.926s0.126-1.306-0.5-3.306c-0.788,0-5.583,0-5.583,0h-5.562
		c0,0-4.178,0.372-5.959,0.853C242.521,150.833,240.189,151.912,239.146,153.031z"/>
	
		<line style="fill:none;stroke:#FFFFFF;stroke-width:0.4484;stroke-miterlimit:10;" x1="244.451" y1="182.885" x2="244.571" y2="150.269"/>
	
		<line style="fill:none;stroke:#FFFFFF;stroke-width:0.4484;stroke-miterlimit:10;" x1="250.407" y1="182.704" x2="250.26" y2="149.332"/>
	<path style="fill:none;stroke:#FFFFFF;stroke-miterlimit:10;" d="M255.5,182v-29.558c0,0-0.193-2.829-0.729-3.534"/>
	<circle style="fill:none;stroke:#FFFFFF;stroke-width:0.4484;stroke-miterlimit:10;" cx="290.052" cy="208.945" r="12.894"/>
	<circle style="fill:none;stroke:#FFFFFF;stroke-width:0.4484;stroke-miterlimit:10;" cx="290.052" cy="208.945" r="19.972"/>
	<circle style="fill:none;stroke:#FFFFFF;stroke-width:0.8969;stroke-miterlimit:10;" cx="290.052" cy="208.945" r="27.051"/>
	<circle style="fill:none;stroke:#FFFFFF;stroke-width:1.3453;stroke-miterlimit:10;" cx="289.647" cy="208.945" r="30.287"/>
	<g>
		<path style="fill:none;stroke:#FFFFFF;stroke-miterlimit:10;" d="M263.5,188.938c0,3.071-2.49,5.562-5.562,5.562h-14.877
			c-3.071,0-5.562-2.49-5.562-5.562v-0.877c0-3.071,2.49-5.562,5.562-5.562h14.877c3.071,0,5.562,2.49,5.562,5.562V188.938z"/>
	</g>
	<line style="fill:none;stroke:#FFFFFF;stroke-miterlimit:10;" x1="230" y1="186.5" x2="238" y2="186.5"/>
	<line style="fill:none;stroke:#FFFFFF;stroke-miterlimit:10;" x1="263" y1="186.5" x2="270" y2="186.5"/>
	<line style="fill:none;stroke:#FFFFFF;stroke-miterlimit:10;" x1="311" y1="186.5" x2="349" y2="186.5"/>
	<circle style="fill:none;stroke:#FFFFFF;stroke-width:0.2242;stroke-miterlimit:10;" cx="328.43" cy="168.851" r="2.188"/>
	<circle style="fill:none;stroke:#FFFFFF;stroke-width:0.4484;stroke-miterlimit:10;" cx="328.328" cy="169.052" r="7.554"/>
</g>
<path style="fill:none;stroke:#FFFFFF;stroke-width:1.6737;stroke-linejoin:round;stroke-miterlimit:10;" d="M103.761,267.062
	c-19.784,0-22.661-15.496-23.255-23.65c-1.288-17.571-1.042-52.309,0.072-69.896c0.516-8.091,0.223-22.687,21.308-22.687
	c19.578,0,52.991,0,73.836,0c21.401,0,22.782,15.397,23.233,23.678c0.941,17.283,0.846,51.616-0.02,68.905
	c-0.415,8.22-2.194,22.341-23.214,23.65c-16.545,0-16.812,0-16.812,0l-0.004-41.617l17.086-0.063l1.258-16.435l-18.593,0.082
	c0,0,0.005-8.333,0.268-13.85c0.396-8.247,12.377-5.603,15.649-5.052c1.132,0.189,2.459,0.621,2.459,0.621
	c0.507-2.904,1.563-10.307,2.396-17.233c0.667-0.828-41.592-9.565-42.405,16.071c-0.171,5.444,0.072,11.474,0.119,19.36
	c-2.222,0-11.869,0-11.869,0l-0.243,16.435l11.826,0.054v41.627C136.857,267.062,123.545,267.062,103.761,267.062z"/>
</svg>
