<?xml version="1.0" encoding="iso-8859-1"?>
<!-- Generator: Adobe Illustrator 16.0.0, SVG Export Plug-In . SVG Version: 6.00 Build 0)  -->
<!DOCTYPE svg PUBLIC "-//W3C//DTD SVG 1.1//EN" "http://www.w3.org/Graphics/SVG/1.1/DTD/svg11.dtd">
<svg version="1.1" id="Layer_1" xmlns="http://www.w3.org/2000/svg" xmlns:xlink="http://www.w3.org/1999/xlink" x="0px" y="0px"
	 width="499px" height="341px" viewBox="0 0 499 341" style="enable-background:new 0 0 499 341;" xml:space="preserve">
<circle style="fill:none;stroke:#FFFFFF;stroke-width:0.427;stroke-miterlimit:10;" cx="394.758" cy="277.583" r="4.262"/>
<g>
	<rect x="-0.039" y="-0.016" style="fill:#FBB982;" width="499.039" height="341"/>
	<circle style="fill:none;stroke:#FFFFFF;stroke-width:0.3973;stroke-miterlimit:10;" cx="118.308" cy="266.563" r="5.039"/>
	<circle style="fill:none;stroke:#FFFFFF;stroke-width:0.1987;stroke-miterlimit:10;" cx="118.308" cy="266.563" r="4.165"/>
	<g>
		<rect x="9.153" y="9.079" style="fill:#010101;" width="482" height="322"/>
		<path style="fill:none;stroke:#FFFFFF;stroke-width:1.4995;stroke-miterlimit:10;" d="M254.316,71.432
			c0,0-6.516-37.654,30.178-38.676c6.729-0.188,14.524,1.691,23.614,9.978c0.833,0.761,6.547-0.938,20.034-7.635
			c-3.454,11.307-14.072,17.361-13.773,17.318c14.745-2.114,18.622-5.797,17.974-4.892c-9.854,13.741-15.676,16.117-15.664,16.261
			c5.338,60.113-63.276,122.617-138.082,80.162c-1.236-0.702,24.633,4.226,46.577-13.295c0,0-21.718,0.276-29.368-22.029
			c0,0,7.629,1.531,14.099-0.543c0.778-0.25-23.885-2.582-25.135-31.486c0,0,6.582,3.88,14.16,4.026
			c0.962,0.019-23.416-14.032-9.607-42.224C189.323,38.396,216.128,71.672,254.316,71.432z"/>
		<g>
			<path style="fill:none;stroke:#FFFFFF;stroke-miterlimit:10;" d="M383.653,275.134c0,12.396-10.049,22.445-22.445,22.445h-83.11
				c-12.396,0-22.445-10.049-22.445-22.445v-83.11c0-12.396,10.049-22.445,22.445-22.445h83.11
				c12.396,0,22.445,10.049,22.445,22.445V275.134z"/>
		</g>
		<g>
			<path style="fill:none;stroke:#FFFFFF;stroke-miterlimit:10;" d="M373.653,196.941c0,3.114-2.524,5.638-5.639,5.638h-13.723
				c-3.114,0-5.639-2.524-5.639-5.638v-13.724c0-3.114,2.524-5.638,5.639-5.638h13.723c3.114,0,5.639,2.524,5.639,5.638V196.941z"/>
		</g>
		<path style="fill:none;stroke:#FFFFFF;stroke-miterlimit:10;" d="M265.36,173.333c-1.161,1.243-1.707,3.305-1.707,3.305
			s0,31.741,0,31.32c0-0.812,2.63-2.583,6.813-2.583c0.73,0,6.624-0.086,6.624-0.086s1.45-0.054,6.378,0
			c5.124,0.053,6.195,2.068,6.195,2.068c0.022,0.215,0.023-34.249,0.023-34.249s0.131-1.529-0.539-3.529c-0.844,0-5.98,0-5.98,0
			h-5.958c0,0-4.447,0.381-6.355,0.896C268.949,170.991,266.479,172.131,265.36,173.333z"/>
		
			<line style="fill:none;stroke:#FFFFFF;stroke-width:0.4808;stroke-miterlimit:10;" x1="270.988" y1="205.375" x2="271.116" y2="170.367"/>
		
			<line style="fill:none;stroke:#FFFFFF;stroke-width:0.4808;stroke-miterlimit:10;" x1="277.367" y1="205.182" x2="277.209" y2="169.362"/>
		<path style="fill:none;stroke:#FFFFFF;stroke-miterlimit:10;" d="M282.653,204.079v-31.378c0,0-0.207-3.21-0.78-3.967"/>
		
			<ellipse style="fill:none;stroke:#FFFFFF;stroke-width:0.4808;stroke-miterlimit:10;" cx="319.831" cy="233.347" rx="13.811" ry="13.839"/>
		
			<ellipse style="fill:none;stroke:#FFFFFF;stroke-width:0.4808;stroke-miterlimit:10;" cx="319.832" cy="233.347" rx="21.393" ry="21.437"/>
		
			<ellipse style="fill:none;stroke:#FFFFFF;stroke-width:0.9617;stroke-miterlimit:10;" cx="319.831" cy="233.347" rx="28.974" ry="29.036"/>
		
			<ellipse style="fill:none;stroke:#FFFFFF;stroke-width:1.4425;stroke-miterlimit:10;" cx="319.398" cy="233.347" rx="32.441" ry="32.509"/>
		<g>
			<path style="fill:none;stroke:#FFFFFF;stroke-miterlimit:10;" d="M291.653,212.616c0,3.293-2.67,5.963-5.963,5.963h-16.073
				c-3.293,0-5.963-2.67-5.963-5.963v-1.073c0-3.293,2.67-5.963,5.963-5.963h16.073c3.293,0,5.963,2.67,5.963,5.963V212.616z"/>
		</g>
		<line style="fill:none;stroke:#FFFFFF;stroke-miterlimit:10;" x1="255.153" y1="209.579" x2="264.153" y2="209.579"/>
		<line style="fill:none;stroke:#FFFFFF;stroke-miterlimit:10;" x1="291.153" y1="209.579" x2="298.153" y2="209.579"/>
		<line style="fill:none;stroke:#FFFFFF;stroke-miterlimit:10;" x1="342.153" y1="209.579" x2="383.153" y2="209.579"/>
		
			<ellipse style="fill:none;stroke:#FFFFFF;stroke-width:0.2404;stroke-miterlimit:10;" cx="360.938" cy="190.312" rx="2.344" ry="2.35"/>
		
			<ellipse style="fill:none;stroke:#FFFFFF;stroke-width:0.4808;stroke-miterlimit:10;" cx="360.829" cy="190.528" rx="8.091" ry="8.107"/>
		<path style="fill:none;stroke:#FFFFFF;stroke-width:1.7946;stroke-linejoin:round;stroke-miterlimit:10;" d="M120.292,295.726
			c-21.191,0-24.272-16.632-24.908-25.385c-1.38-18.86-1.116-56.145,0.077-75.022c0.552-8.684,0.239-24.351,22.823-24.351
			c20.971,0,56.76,0,79.086,0c22.923,0,24.402,16.527,24.886,25.415c1.008,18.55,0.906,55.401-0.021,73.958
			c-0.444,8.823-2.35,23.979-24.865,25.385c-17.721,0-18.007,0-18.007,0l-0.004-44.669l18.301-0.068l1.347-17.64l-19.915,0.088
			c0,0,0.005-8.944,0.287-14.865c0.424-8.852,13.257-6.013,16.762-5.422c1.212,0.203,2.634,0.667,2.634,0.667
			c0.543-3.117,1.675-11.062,2.567-18.497c0.714-0.889-44.549-10.267-45.42,17.25c-0.183,5.844,0.077,12.315,0.127,20.78
			c-2.38,0-12.713,0-12.713,0l-0.26,17.64l12.667,0.058v44.68C155.743,295.726,141.484,295.726,120.292,295.726z"/>
	</g>
</g>
</svg>
